<?xml version="1.0" standalone="no"?>
<!DOCTYPE svg PUBLIC "-//W3C//DTD SVG 20010904//EN"
 "http://www.w3.org/TR/2001/REC-SVG-20010904/DTD/svg10.dtd">
<svg version="1.0" xmlns="http://www.w3.org/2000/svg"
 width="260.000000pt" height="260.000000pt" viewBox="0 0 260.000000 260.000000"
 preserveAspectRatio="xMidYMid meet">
<metadata>
Created by potrace 1.11, written by Peter Selinger 2001-2013
</metadata>
<g transform="translate(0.000000,260.000000) scale(0.100000,-0.100000)"
fill="#000000" stroke="none">
<path d="M500 2416 c-82 -25 -124 -44 -185 -87 -121 -85 -212 -210 -264 -365
-19 -59 -24 -77 -39 -159 -8 -48 -7 -301 2 -332 3 -13 8 -31 10 -40 10 -44 43
-114 84 -178 44 -70 214 -245 238 -245 7 0 14 -4 16 -9 2 -5 39 -32 83 -60 44
-28 85 -54 90 -59 6 -4 44 -27 85 -51 301 -177 535 -392 653 -599 l30 -54 14
29 c43 89 96 155 233 294 155 156 258 233 591 443 133 84 264 197 333 289 24
32 86 148 90 170 2 7 6 19 9 27 33 85 32 325 -3 460 -27 105 -75 210 -128 281
-44 60 -125 139 -141 139 -6 0 -11 4 -11 8 0 13 -124 71 -192 89 -38 10 -99
17 -153 17 -170 -1 -324 -69 -472 -210 -31 -30 -117 -152 -144 -206 l-30 -59
-35 68 c-40 76 -126 194 -175 237 -36 33 -154 116 -163 116 -3 0 -25 9 -49 19
-115 53 -255 63 -377 27z m510 -328 c42 -21 100 -60 131 -90 53 -50 149 -183
149 -207 0 -22 18 -10 31 21 28 69 101 159 175 216 33 26 123 72 151 77 10 2
18 4 18 5 0 10 148 16 195 8 50 -9 110 -32 121 -45 6 -7 17 -13 23 -13 21 0
107 -82 146 -141 71 -104 102 -214 103 -364 1 -105 -9 -153 -49 -233 -50 -103
-146 -195 -313 -302 -231 -147 -356 -248 -466 -371 -63 -72 -79 -92 -100 -132
-19 -36 -35 -48 -35 -26 0 48 -244 310 -339 363 -9 5 -18 12 -21 15 -10 12
-90 61 -100 61 -5 0 -10 4 -10 8 0 5 -12 14 -26 21 -64 29 -229 147 -288 206
-112 113 -160 222 -159 370 0 104 8 169 26 215 3 8 11 33 18 54 6 22 27 65 45
96 34 59 130 160 152 160 6 0 12 3 12 8 0 8 91 48 103 44 4 -1 7 2 7 7 0 5 51
8 113 7 107 -1 115 -3 187 -38z"/>
</g>
</svg>
